<?xml version="1.0" encoding="UTF-8"?>
<!-- Generated by Pixelmator Pro 3.6.18 -->
<svg width="64" height="64" viewBox="0 0 64 64" xmlns="http://www.w3.org/2000/svg">
    <path id="Path" fill="none" stroke="none" d="M -0 0 L 64 0 L 64 64 L -0 64 L -0 0 Z"/>
    <linearGradient id="linearGradient1" x1="3.605333" y1="40.1152" x2="52.155733" y2="20.488533" gradientUnits="userSpaceOnUse">
        <stop offset="0.13" stop-color="#1cbbf3" stop-opacity="1"/>
        <stop offset="0.34" stop-color="#1f99a5" stop-opacity="1"/>
        <stop offset="0.45" stop-color="#209ca6" stop-opacity="1"/>
        <stop offset="0.51" stop-color="#24a4aa" stop-opacity="1"/>
        <stop offset="0.57" stop-color="#2bb3b0" stop-opacity="1"/>
        <stop offset="0.6" stop-color="#30bdb4" stop-opacity="1"/>
        <stop offset="0.79" stop-color="#38ba90" stop-opacity="1"/>
        <stop offset="1" stop-color="#60f05a" stop-opacity="1"/>
    </linearGradient>
    <path id="path1" fill="url(#linearGradient1)" stroke="none" d="M 15.167999 32.456535 C 18.0096 41.924267 22.131199 47.790932 25.314135 34.248531 C 25.006933 34.205864 31.782398 16.281601 32.068268 15.590401 C 34.679466 12.113068 38.886398 9.971203 43.255466 10.013866 C 51.882668 9.348267 60.834133 21.316265 58.487469 27.106133 C 56.883202 31.295998 50.854401 32.187737 48.081066 28.671997 C 47.116798 27.473068 46.7328 25.954136 45.896534 24.627201 C 44.283733 21.623466 42.150402 21.324799 40.776535 24.691196 C 39.628799 27.200001 39.010132 29.806934 38.395733 32.452263 L 35.784534 40.934402 L 32.132267 48.989868 C 29.5168 52.403198 25.361067 54.434135 21.073067 54.468269 C 3.938133 53.623466 2.449067 30.784 1.0752 23.9104 C 0.8832 22.015999 1.066667 21.124264 1.860267 19.635201 C 3.963733 15.927467 9.7792 15.722668 12.168533 19.242664 C 13.0176 20.416 13.179733 21.917866 13.341866 23.321602 C 13.700267 26.389332 14.318933 29.452801 15.167999 32.456535 L 15.167999 32.456535 Z"/>
    <radialGradient id="radialGradient1" cx="35.811272" cy="28.694821" r="29.435737" fx="35.811272" fy="28.694821" gradientUnits="userSpaceOnUse">
        <stop offset="1e-05" stop-color="#227b60" stop-opacity="1"/>
        <stop offset="0.14" stop-color="#227b60" stop-opacity="0.81"/>
        <stop offset="0.58" stop-color="#227b60" stop-opacity="0.23"/>
        <stop offset="0.78" stop-color="#227b60" stop-opacity="0"/>
    </radialGradient>
    <path id="path2" fill="url(#radialGradient1)" stroke="none" d="M 15.167999 32.456535 C 18.0096 41.924267 22.131199 47.790932 25.314135 34.248531 C 25.006933 34.205864 31.782398 16.281601 32.068268 15.590401 C 34.679466 12.113068 38.886398 9.971203 43.255466 10.013866 C 51.882668 9.348267 60.834133 21.316265 58.487469 27.106133 C 56.883202 31.295998 50.854401 32.187737 48.081066 28.671997 C 47.116798 27.473068 46.7328 25.954136 45.896534 24.627201 C 44.283733 21.623466 42.150402 21.324799 40.776535 24.691196 C 39.628799 27.200001 39.010132 29.806934 38.395733 32.452263 L 35.784534 40.934402 L 32.132267 48.989868 C 29.5168 52.403198 25.361067 54.434135 21.073067 54.468269 C 3.938133 53.623466 2.449067 30.784 1.0752 23.9104 C 0.8832 22.015999 1.066667 21.124264 1.860267 19.635201 C 3.963733 15.927467 9.7792 15.722668 12.168533 19.242664 C 13.0176 20.416 13.179733 21.917866 13.341866 23.321602 C 13.700267 26.389332 14.318933 29.452801 15.167999 32.456535 L 15.167999 32.456535 Z"/>
    <radialGradient id="radialGradient2" cx="40.482084" cy="27.279676" r="20.207476" fx="40.482084" fy="27.279676" gradientUnits="userSpaceOnUse">
        <stop offset="1e-05" stop-color="#227b60" stop-opacity="1"/>
        <stop offset="0.25" stop-color="#227b60" stop-opacity="0.7"/>
        <stop offset="0.71" stop-color="#227b60" stop-opacity="0.2"/>
        <stop offset="0.92" stop-color="#227b60" stop-opacity="0"/>
    </radialGradient>
    <path id="path3" fill="url(#radialGradient2)" stroke="none" d="M 15.167999 32.456535 C 18.0096 41.924267 22.131199 47.790932 25.314135 34.248531 C 25.006933 34.205864 31.782398 16.281601 32.068268 15.590401 C 34.679466 12.113068 38.886398 9.971203 43.255466 10.013866 C 51.882668 9.348267 60.834133 21.316265 58.487469 27.106133 C 56.883202 31.295998 50.854401 32.187737 48.081066 28.671997 C 47.116798 27.473068 46.7328 25.954136 45.896534 24.627201 C 44.283733 21.623466 42.150402 21.324799 40.776535 24.691196 C 39.628799 27.200001 39.010132 29.806934 38.395733 32.452263 L 35.784534 40.934402 L 32.132267 48.989868 C 29.5168 52.403198 25.361067 54.434135 21.073067 54.468269 C 3.938133 53.623466 2.449067 30.784 1.0752 23.9104 C 0.8832 22.015999 1.066667 21.124264 1.860267 19.635201 C 3.963733 15.927467 9.7792 15.722668 12.168533 19.242664 C 13.0176 20.416 13.179733 21.917866 13.341866 23.321602 C 13.700267 26.389332 14.318933 29.452801 15.167999 32.456535 L 15.167999 32.456535 Z"/>
    <radialGradient id="radialGradient3" cx="39.001139" cy="27.563127" r="18.835944" fx="39.001139" fy="27.563127" gradientUnits="userSpaceOnUse">
        <stop offset="1e-05" stop-color="#227b60" stop-opacity="1"/>
        <stop offset="0.07" stop-color="#227b60" stop-opacity="0.9"/>
        <stop offset="0.34" stop-color="#227b60" stop-opacity="0.51"/>
        <stop offset="0.59" stop-color="#227b60" stop-opacity="0.23"/>
        <stop offset="0.79" stop-color="#227b60" stop-opacity="0.06"/>
        <stop offset="0.92" stop-color="#227b60" stop-opacity="0"/>
    </radialGradient>
    <path id="path4" fill="url(#radialGradient3)" stroke="none" d="M 15.167999 32.456535 C 18.0096 41.924267 22.131199 47.790932 25.314135 34.248531 C 25.006933 34.205864 31.782398 16.281601 32.068268 15.590401 C 34.679466 12.113068 38.886398 9.971203 43.255466 10.013866 C 51.882668 9.348267 60.834133 21.316265 58.487469 27.106133 C 56.883202 31.295998 50.854401 32.187737 48.081066 28.671997 C 47.116798 27.473068 46.7328 25.954136 45.896534 24.627201 C 44.283733 21.623466 42.150402 21.324799 40.776535 24.691196 C 39.628799 27.200001 39.010132 29.806934 38.395733 32.452263 L 35.784534 40.934402 L 32.132267 48.989868 C 29.5168 52.403198 25.361067 54.434135 21.073067 54.468269 C 3.938133 53.623466 2.449067 30.784 1.0752 23.9104 C 0.8832 22.015999 1.066667 21.124264 1.860267 19.635201 C 3.963733 15.927467 9.7792 15.722668 12.168533 19.242664 C 13.0176 20.416 13.179733 21.917866 13.341866 23.321602 C 13.700267 26.389332 14.318933 29.452801 15.167999 32.456535 L 15.167999 32.456535 Z"/>
    <radialGradient id="radialGradient4" cx="39.796263" cy="26.753016" r="15.20878" fx="39.796263" fy="26.753016" gradientUnits="userSpaceOnUse">
        <stop offset="1e-05" stop-color="#227b60" stop-opacity="1"/>
        <stop offset="0.36" stop-color="#227b60" stop-opacity="0.63"/>
        <stop offset="0.92" stop-color="#227b60" stop-opacity="0"/>
    </radialGradient>
    <path id="path5" fill="url(#radialGradient4)" stroke="none" d="M 15.167999 32.456535 C 18.0096 41.924267 22.131199 47.790932 25.314135 34.248531 C 25.006933 34.205864 31.782398 16.281601 32.068268 15.590401 C 34.679466 12.113068 38.886398 9.971203 43.255466 10.013866 C 51.882668 9.348267 60.834133 21.316265 58.487469 27.106133 C 56.883202 31.295998 50.854401 32.187737 48.081066 28.671997 C 47.116798 27.473068 46.7328 25.954136 45.896534 24.627201 C 44.283733 21.623466 42.150402 21.324799 40.776535 24.691196 C 39.628799 27.200001 39.010132 29.806934 38.395733 32.452263 L 35.784534 40.934402 L 32.132267 48.989868 C 29.5168 52.403198 25.361067 54.434135 21.073067 54.468269 C 3.938133 53.623466 2.449067 30.784 1.0752 23.9104 C 0.8832 22.015999 1.066667 21.124264 1.860267 19.635201 C 3.963733 15.927467 9.7792 15.722668 12.168533 19.242664 C 13.0176 20.416 13.179733 21.917866 13.341866 23.321602 C 13.700267 26.389332 14.318933 29.452801 15.167999 32.456535 L 15.167999 32.456535 Z"/>
    <radialGradient id="radialGradient5" cx="39.288973" cy="27.518209" r="12.129909" fx="39.288973" fy="27.518209" gradientUnits="userSpaceOnUse">
        <stop offset="1e-05" stop-color="#20735a" stop-opacity="1"/>
        <stop offset="0.15" stop-color="#20745a" stop-opacity="0.93"/>
        <stop offset="0.38" stop-color="#21755c" stop-opacity="0.74"/>
        <stop offset="0.67" stop-color="#21785d" stop-opacity="0.43"/>
        <stop offset="1" stop-color="#227b60" stop-opacity="0"/>
    </radialGradient>
    <path id="path6" fill="url(#radialGradient5)" stroke="none" d="M 15.167999 32.456535 C 18.0096 41.924267 22.131199 47.790932 25.314135 34.248531 C 25.006933 34.205864 31.782398 16.281601 32.068268 15.590401 C 34.679466 12.113068 38.886398 9.971203 43.255466 10.013866 C 51.882668 9.348267 60.834133 21.316265 58.487469 27.106133 C 56.883202 31.295998 50.854401 32.187737 48.081066 28.671997 C 47.116798 27.473068 46.7328 25.954136 45.896534 24.627201 C 44.283733 21.623466 42.150402 21.324799 40.776535 24.691196 C 39.628799 27.200001 39.010132 29.806934 38.395733 32.452263 L 35.784534 40.934402 L 32.132267 48.989868 C 29.5168 52.403198 25.361067 54.434135 21.073067 54.468269 C 3.938133 53.623466 2.449067 30.784 1.0752 23.9104 C 0.8832 22.015999 1.066667 21.124264 1.860267 19.635201 C 3.963733 15.927467 9.7792 15.722668 12.168533 19.242664 C 13.0176 20.416 13.179733 21.917866 13.341866 23.321602 C 13.700267 26.389332 14.318933 29.452801 15.167999 32.456535 L 15.167999 32.456535 Z"/>
    <radialGradient id="radialGradient6" cx="41.037931" cy="28.57487" r="15.83025" fx="41.037931" fy="28.57487" gradientUnits="userSpaceOnUse">
        <stop offset="1e-05" stop-color="#227a61" stop-opacity="1"/>
        <stop offset="0.36" stop-color="#227a61" stop-opacity="0.56"/>
        <stop offset="0.72" stop-color="#227a61" stop-opacity="0.16"/>
        <stop offset="0.9" stop-color="#227a61" stop-opacity="0"/>
    </radialGradient>
    <path id="path7" fill="url(#radialGradient6)" stroke="none" d="M 15.167999 32.456535 C 18.0096 41.924267 22.131199 47.790932 25.314135 34.248531 C 25.006933 34.205864 31.782398 16.281601 32.068268 15.590401 C 34.679466 12.113068 38.886398 9.971203 43.255466 10.013866 C 51.882668 9.348267 60.834133 21.316265 58.487469 27.106133 C 56.883202 31.295998 50.854401 32.187737 48.081066 28.671997 C 47.116798 27.473068 46.7328 25.954136 45.896534 24.627201 C 44.283733 21.623466 42.150402 21.324799 40.776535 24.691196 C 39.628799 27.200001 39.010132 29.806934 38.395733 32.452263 L 35.784534 40.934402 L 32.132267 48.989868 C 29.5168 52.403198 25.361067 54.434135 21.073067 54.468269 C 3.938133 53.623466 2.449067 30.784 1.0752 23.9104 C 0.8832 22.015999 1.066667 21.124264 1.860267 19.635201 C 3.963733 15.927467 9.7792 15.722668 12.168533 19.242664 C 13.0176 20.416 13.179733 21.917866 13.341866 23.321602 C 13.700267 26.389332 14.318933 29.452801 15.167999 32.456535 L 15.167999 32.456535 Z"/>
    <radialGradient id="radialGradient7" cx="35.663408" cy="5.891851" r="22.203351" fx="35.663408" fy="5.891851" gradientUnits="userSpaceOnUse">
        <stop offset="1e-05" stop-color="#3cd9c3" stop-opacity="1"/>
        <stop offset="0.07" stop-color="#3bd7c1" stop-opacity="0.9"/>
        <stop offset="0.41" stop-color="#38ceb9" stop-opacity="0.42"/>
        <stop offset="0.65" stop-color="#36c8b4" stop-opacity="0.12"/>
        <stop offset="0.76" stop-color="#35c6b2" stop-opacity="0"/>
    </radialGradient>
    <path id="path8" fill="url(#radialGradient7)" stroke="none" d="M 15.167999 32.456535 C 18.0096 41.924267 22.131199 47.790932 25.314135 34.248531 C 25.006933 34.205864 31.782398 16.281601 32.068268 15.590401 C 34.679466 12.113068 38.886398 9.971203 43.255466 10.013866 C 51.882668 9.348267 60.834133 21.316265 58.487469 27.106133 C 56.883202 31.295998 50.854401 32.187737 48.081066 28.671997 C 47.116798 27.473068 46.7328 25.954136 45.896534 24.627201 C 44.283733 21.623466 42.150402 21.324799 40.776535 24.691196 C 39.628799 27.200001 39.010132 29.806934 38.395733 32.452263 L 35.784534 40.934402 L 32.132267 48.989868 C 29.5168 52.403198 25.361067 54.434135 21.073067 54.468269 C 3.938133 53.623466 2.449067 30.784 1.0752 23.9104 C 0.8832 22.015999 1.066667 21.124264 1.860267 19.635201 C 3.963733 15.927467 9.7792 15.722668 12.168533 19.242664 C 13.0176 20.416 13.179733 21.917866 13.341866 23.321602 C 13.700267 26.389332 14.318933 29.452801 15.167999 32.456535 L 15.167999 32.456535 Z"/>
    <radialGradient id="radialGradient8" cx="-25337.129193" cy="-15440.611928" r="3943.972688" fx="-25337.129193" fy="-15440.611928" gradientUnits="userSpaceOnUse">
        <stop offset="1e-05" stop-color="#3cd9c3" stop-opacity="1"/>
        <stop offset="0.07" stop-color="#3bd7c1" stop-opacity="0.9"/>
        <stop offset="0.41" stop-color="#38ceb9" stop-opacity="0.42"/>
        <stop offset="0.65" stop-color="#36c8b4" stop-opacity="0.12"/>
        <stop offset="0.76" stop-color="#35c6b2" stop-opacity="0"/>
    </radialGradient>
    <path id="path9" fill="url(#radialGradient8)" stroke="none" d="M 15.167999 32.456535 C 18.0096 41.924267 22.131199 47.790932 25.314135 34.248531 C 25.006933 34.205864 31.782398 16.281601 32.068268 15.590401 C 34.679466 12.113068 38.886398 9.971203 43.255466 10.013866 C 51.882668 9.348267 60.834133 21.316265 58.487469 27.106133 C 56.883202 31.295998 50.854401 32.187737 48.081066 28.671997 C 47.116798 27.473068 46.7328 25.954136 45.896534 24.627201 C 44.283733 21.623466 42.150402 21.324799 40.776535 24.691196 C 39.628799 27.200001 39.010132 29.806934 38.395733 32.452263 L 35.784534 40.934402 L 32.132267 48.989868 C 29.5168 52.403198 25.361067 54.434135 21.073067 54.468269 C 3.938133 53.623466 2.449067 30.784 1.0752 23.9104 C 0.8832 22.015999 1.066667 21.124264 1.860267 19.635201 C 3.963733 15.927467 9.7792 15.722668 12.168533 19.242664 C 13.0176 20.416 13.179733 21.917866 13.341866 23.321602 C 13.700267 26.389332 14.318933 29.452801 15.167999 32.456535 L 15.167999 32.456535 Z"/>
    <radialGradient id="radialGradient9" cx="42.569428" cy="33.71632" r="22.788701" fx="42.569428" fy="33.71632" gradientUnits="userSpaceOnUse">
        <stop offset="1e-05" stop-color="#237f66" stop-opacity="0.8"/>
        <stop offset="0.06" stop-color="#2c8c70" stop-opacity="0.65"/>
        <stop offset="0.21" stop-color="#3da785" stop-opacity="0.37"/>
        <stop offset="0.35" stop-color="#4aba93" stop-opacity="0.17"/>
        <stop offset="0.47" stop-color="#51c59c" stop-opacity="0.04"/>
        <stop offset="0.56" stop-color="#54c99f" stop-opacity="0"/>
    </radialGradient>
    <path id="path10" fill="url(#radialGradient9)" stroke="none" d="M 15.167999 32.456535 C 18.0096 41.924267 22.131199 47.790932 25.314135 34.248531 C 25.006933 34.205864 31.782398 16.281601 32.068268 15.590401 C 34.679466 12.113068 38.886398 9.971203 43.255466 10.013866 C 51.882668 9.348267 60.834133 21.316265 58.487469 27.106133 C 56.883202 31.295998 50.854401 32.187737 48.081066 28.671997 C 47.116798 27.473068 46.7328 25.954136 45.896534 24.627201 C 44.283733 21.623466 42.150402 21.324799 40.776535 24.691196 C 39.628799 27.200001 39.010132 29.806934 38.395733 32.452263 L 35.784534 40.934402 L 32.132267 48.989868 C 29.5168 52.403198 25.361067 54.434135 21.073067 54.468269 C 3.938133 53.623466 2.449067 30.784 1.0752 23.9104 C 0.8832 22.015999 1.066667 21.124264 1.860267 19.635201 C 3.963733 15.927467 9.7792 15.722668 12.168533 19.242664 C 13.0176 20.416 13.179733 21.917866 13.341866 23.321602 C 13.700267 26.389332 14.318933 29.452801 15.167999 32.456535 L 15.167999 32.456535 Z"/>
    <radialGradient id="radialGradient10" cx="33.917622" cy="33.922731" r="27.445511" fx="33.917622" fy="33.922731" gradientUnits="userSpaceOnUse">
        <stop offset="1e-05" stop-color="#167c8a" stop-opacity="1"/>
        <stop offset="0.04" stop-color="#167c8a" stop-opacity="0.93"/>
        <stop offset="0.33" stop-color="#177f8d" stop-opacity="0.43"/>
        <stop offset="0.54" stop-color="#17818f" stop-opacity="0.12"/>
        <stop offset="0.65" stop-color="#178290" stop-opacity="0"/>
    </radialGradient>
    <path id="path11" fill="url(#radialGradient10)" stroke="none" d="M 15.167999 32.456535 C 18.0096 41.924267 22.131199 47.790932 25.314135 34.248531 C 25.006933 34.205864 31.782398 16.281601 32.068268 15.590401 C 34.679466 12.113068 38.886398 9.971203 43.255466 10.013866 C 51.882668 9.348267 60.834133 21.316265 58.487469 27.106133 C 56.883202 31.295998 50.854401 32.187737 48.081066 28.671997 C 47.116798 27.473068 46.7328 25.954136 45.896534 24.627201 C 44.283733 21.623466 42.150402 21.324799 40.776535 24.691196 C 39.628799 27.200001 39.010132 29.806934 38.395733 32.452263 L 35.784534 40.934402 L 32.132267 48.989868 C 29.5168 52.403198 25.361067 54.434135 21.073067 54.468269 C 3.938133 53.623466 2.449067 30.784 1.0752 23.9104 C 0.8832 22.015999 1.066667 21.124264 1.860267 19.635201 C 3.963733 15.927467 9.7792 15.722668 12.168533 19.242664 C 13.0176 20.416 13.179733 21.917866 13.341866 23.321602 C 13.700267 26.389332 14.318933 29.452801 15.167999 32.456535 L 15.167999 32.456535 Z"/>
    <radialGradient id="radialGradient11" cx="32.163516" cy="35.970048" r="24.875666" fx="32.163516" fy="35.970048" gradientUnits="userSpaceOnUse">
        <stop offset="0.05" stop-color="#177d87" stop-opacity="1"/>
        <stop offset="0.11" stop-color="#177e89" stop-opacity="0.8"/>
        <stop offset="0.21" stop-color="#177f8b" stop-opacity="0.52"/>
        <stop offset="0.32" stop-color="#17818d" stop-opacity="0.29"/>
        <stop offset="0.42" stop-color="#17818f" stop-opacity="0.13"/>
        <stop offset="0.51" stop-color="#178290" stop-opacity="0.03"/>
        <stop offset="0.6" stop-color="#178290" stop-opacity="0"/>
    </radialGradient>
    <path id="path12" fill="url(#radialGradient11)" stroke="none" d="M 15.167999 32.456535 C 18.0096 41.924267 22.131199 47.790932 25.314135 34.248531 C 25.006933 34.205864 31.782398 16.281601 32.068268 15.590401 C 34.679466 12.113068 38.886398 9.971203 43.255466 10.013866 C 51.882668 9.348267 60.834133 21.316265 58.487469 27.106133 C 56.883202 31.295998 50.854401 32.187737 48.081066 28.671997 C 47.116798 27.473068 46.7328 25.954136 45.896534 24.627201 C 44.283733 21.623466 42.150402 21.324799 40.776535 24.691196 C 39.628799 27.200001 39.010132 29.806934 38.395733 32.452263 L 35.784534 40.934402 L 32.132267 48.989868 C 29.5168 52.403198 25.361067 54.434135 21.073067 54.468269 C 3.938133 53.623466 2.449067 30.784 1.0752 23.9104 C 0.8832 22.015999 1.066667 21.124264 1.860267 19.635201 C 3.963733 15.927467 9.7792 15.722668 12.168533 19.242664 C 13.0176 20.416 13.179733 21.917866 13.341866 23.321602 C 13.700267 26.389332 14.318933 29.452801 15.167999 32.456535 L 15.167999 32.456535 Z"/>
    <radialGradient id="radialGradient12" cx="26.565011" cy="35.712271" r="15.859729" fx="26.565011" fy="35.712271" gradientUnits="userSpaceOnUse">
        <stop offset="0.26" stop-color="#177f8a" stop-opacity="1"/>
        <stop offset="0.27" stop-color="#177f8a" stop-opacity="0.98"/>
        <stop offset="0.38" stop-color="#17808c" stop-opacity="0.68"/>
        <stop offset="0.5" stop-color="#17818d" stop-opacity="0.43"/>
        <stop offset="0.62" stop-color="#17818f" stop-opacity="0.24"/>
        <stop offset="0.74" stop-color="#17828f" stop-opacity="0.11"/>
        <stop offset="0.86" stop-color="#178290" stop-opacity="0.03"/>
        <stop offset="1" stop-color="#178290" stop-opacity="0"/>
    </radialGradient>
    <path id="path13" fill="url(#radialGradient12)" stroke="none" d="M 15.167999 32.456535 C 18.0096 41.924267 22.131199 47.790932 25.314135 34.248531 C 25.006933 34.205864 31.782398 16.281601 32.068268 15.590401 C 34.679466 12.113068 38.886398 9.971203 43.255466 10.013866 C 51.882668 9.348267 60.834133 21.316265 58.487469 27.106133 C 56.883202 31.295998 50.854401 32.187737 48.081066 28.671997 C 47.116798 27.473068 46.7328 25.954136 45.896534 24.627201 C 44.283733 21.623466 42.150402 21.324799 40.776535 24.691196 C 39.628799 27.200001 39.010132 29.806934 38.395733 32.452263 L 35.784534 40.934402 L 32.132267 48.989868 C 29.5168 52.403198 25.361067 54.434135 21.073067 54.468269 C 3.938133 53.623466 2.449067 30.784 1.0752 23.9104 C 0.8832 22.015999 1.066667 21.124264 1.860267 19.635201 C 3.963733 15.927467 9.7792 15.722668 12.168533 19.242664 C 13.0176 20.416 13.179733 21.917866 13.341866 23.321602 C 13.700267 26.389332 14.318933 29.452801 15.167999 32.456535 L 15.167999 32.456535 Z"/>
    <radialGradient id="radialGradient13" cx="24.23398" cy="40.418539" r="12.637536" fx="24.23398" fy="40.418539" gradientUnits="userSpaceOnUse">
        <stop offset="1e-05" stop-color="#13656e" stop-opacity="1"/>
        <stop offset="0.11" stop-color="#13646e" stop-opacity="0.73"/>
        <stop offset="0.27" stop-color="#12646e" stop-opacity="0.41"/>
        <stop offset="0.42" stop-color="#12636e" stop-opacity="0.18"/>
        <stop offset="0.55" stop-color="#12636e" stop-opacity="0.05"/>
        <stop offset="0.66" stop-color="#12636e" stop-opacity="0"/>
    </radialGradient>
    <path id="path14" fill="url(#radialGradient13)" stroke="none" d="M 15.167999 32.456535 C 18.0096 41.924267 22.131199 47.790932 25.314135 34.248531 C 25.006933 34.205864 31.782398 16.281601 32.068268 15.590401 C 34.679466 12.113068 38.886398 9.971203 43.255466 10.013866 C 51.882668 9.348267 60.834133 21.316265 58.487469 27.106133 C 56.883202 31.295998 50.854401 32.187737 48.081066 28.671997 C 47.116798 27.473068 46.7328 25.954136 45.896534 24.627201 C 44.283733 21.623466 42.150402 21.324799 40.776535 24.691196 C 39.628799 27.200001 39.010132 29.806934 38.395733 32.452263 L 35.784534 40.934402 L 32.132267 48.989868 C 29.5168 52.403198 25.361067 54.434135 21.073067 54.468269 C 3.938133 53.623466 2.449067 30.784 1.0752 23.9104 C 0.8832 22.015999 1.066667 21.124264 1.860267 19.635201 C 3.963733 15.927467 9.7792 15.722668 12.168533 19.242664 C 13.0176 20.416 13.179733 21.917866 13.341866 23.321602 C 13.700267 26.389332 14.318933 29.452801 15.167999 32.456535 L 15.167999 32.456535 Z"/>
    <radialGradient id="radialGradient14" cx="24.124151" cy="41.665301" r="11.007066" fx="24.124151" fy="41.665301" gradientUnits="userSpaceOnUse">
        <stop offset="0.13" stop-color="#146a73" stop-opacity="1"/>
        <stop offset="0.24" stop-color="#156f79" stop-opacity="0.79"/>
        <stop offset="0.45" stop-color="#167783" stop-opacity="0.45"/>
        <stop offset="0.65" stop-color="#167d8a" stop-opacity="0.2"/>
        <stop offset="0.82" stop-color="#17818e" stop-opacity="0.05"/>
        <stop offset="0.95" stop-color="#178290" stop-opacity="0"/>
    </radialGradient>
    <path id="path15" fill="url(#radialGradient14)" stroke="none" d="M 15.167999 32.456535 C 18.0096 41.924267 22.131199 47.790932 25.314135 34.248531 C 25.006933 34.205864 31.782398 16.281601 32.068268 15.590401 C 34.679466 12.113068 38.886398 9.971203 43.255466 10.013866 C 51.882668 9.348267 60.834133 21.316265 58.487469 27.106133 C 56.883202 31.295998 50.854401 32.187737 48.081066 28.671997 C 47.116798 27.473068 46.7328 25.954136 45.896534 24.627201 C 44.283733 21.623466 42.150402 21.324799 40.776535 24.691196 C 39.628799 27.200001 39.010132 29.806934 38.395733 32.452263 L 35.784534 40.934402 L 32.132267 48.989868 C 29.5168 52.403198 25.361067 54.434135 21.073067 54.468269 C 3.938133 53.623466 2.449067 30.784 1.0752 23.9104 C 0.8832 22.015999 1.066667 21.124264 1.860267 19.635201 C 3.963733 15.927467 9.7792 15.722668 12.168533 19.242664 C 13.0176 20.416 13.179733 21.917866 13.341866 23.321602 C 13.700267 26.389332 14.318933 29.452801 15.167999 32.456535 L 15.167999 32.456535 Z"/>
    <radialGradient id="radialGradient15" cx="23.186141" cy="37.35158" r="10.04842" fx="23.186141" fy="37.35158" gradientUnits="userSpaceOnUse">
        <stop offset="1e-05" stop-color="#198e9c" stop-opacity="1"/>
        <stop offset="0.1" stop-color="#198e9c" stop-opacity="0.87"/>
        <stop offset="0.41" stop-color="#198e9c" stop-opacity="0.5"/>
        <stop offset="0.67" stop-color="#198e9c" stop-opacity="0.23"/>
        <stop offset="0.88" stop-color="#198e9c" stop-opacity="0.06"/>
        <stop offset="1" stop-color="#198e9c" stop-opacity="0"/>
    </radialGradient>
    <path id="path16" fill="url(#radialGradient15)" stroke="none" d="M 15.167999 32.456535 C 18.0096 41.924267 22.131199 47.790932 25.314135 34.248531 C 25.006933 34.205864 31.782398 16.281601 32.068268 15.590401 C 34.679466 12.113068 38.886398 9.971203 43.255466 10.013866 C 51.882668 9.348267 60.834133 21.316265 58.487469 27.106133 C 56.883202 31.295998 50.854401 32.187737 48.081066 28.671997 C 47.116798 27.473068 46.7328 25.954136 45.896534 24.627201 C 44.283733 21.623466 42.150402 21.324799 40.776535 24.691196 C 39.628799 27.200001 39.010132 29.806934 38.395733 32.452263 L 35.784534 40.934402 L 32.132267 48.989868 C 29.5168 52.403198 25.361067 54.434135 21.073067 54.468269 C 3.938133 53.623466 2.449067 30.784 1.0752 23.9104 C 0.8832 22.015999 1.066667 21.124264 1.860267 19.635201 C 3.963733 15.927467 9.7792 15.722668 12.168533 19.242664 C 13.0176 20.416 13.179733 21.917866 13.341866 23.321602 C 13.700267 26.389332 14.318933 29.452801 15.167999 32.456535 L 15.167999 32.456535 Z"/>
    <linearGradient id="linearGradient2" x1="6.877867" y1="8.9728" x2="28.224" y2="28.727467" gradientUnits="userSpaceOnUse">
        <stop offset="0.13" stop-color="#2bf9ff" stop-opacity="1"/>
        <stop offset="0.27" stop-color="#29f9ff" stop-opacity="0.64"/>
        <stop offset="0.4" stop-color="#27faff" stop-opacity="0.3"/>
        <stop offset="0.49" stop-color="#26faff" stop-opacity="0.08"/>
        <stop offset="0.54" stop-color="#26faff" stop-opacity="0"/>
    </linearGradient>
    <path id="path17" fill="url(#linearGradient2)" stroke="none" d="M 15.167999 32.456535 C 18.0096 41.924267 22.131199 47.790932 25.314135 34.248531 C 25.006933 34.205864 31.782398 16.281601 32.068268 15.590401 C 34.679466 12.113068 38.886398 9.971203 43.255466 10.013866 C 51.882668 9.348267 60.834133 21.316265 58.487469 27.106133 C 56.883202 31.295998 50.854401 32.187737 48.081066 28.671997 C 47.116798 27.473068 46.7328 25.954136 45.896534 24.627201 C 44.283733 21.623466 42.150402 21.324799 40.776535 24.691196 C 39.628799 27.200001 39.010132 29.806934 38.395733 32.452263 L 35.784534 40.934402 L 32.132267 48.989868 C 29.5168 52.403198 25.361067 54.434135 21.073067 54.468269 C 3.938133 53.623466 2.449067 30.784 1.0752 23.9104 C 0.8832 22.015999 1.066667 21.124264 1.860267 19.635201 C 3.963733 15.927467 9.7792 15.722668 12.168533 19.242664 C 13.0176 20.416 13.179733 21.917866 13.341866 23.321602 C 13.700267 26.389332 14.318933 29.452801 15.167999 32.456535 L 15.167999 32.456535 Z"/>
    <linearGradient id="linearGradient3" x1="-5.252267" y1="41.220267" x2="19.669333" y2="34.1504" gradientUnits="userSpaceOnUse">
        <stop offset="1e-05" stop-color="#26faff" stop-opacity="1"/>
        <stop offset="0.06" stop-color="#26faff" stop-opacity="0.88"/>
        <stop offset="0.24" stop-color="#26faff" stop-opacity="0.51"/>
        <stop offset="0.39" stop-color="#26faff" stop-opacity="0.23"/>
        <stop offset="0.5" stop-color="#26faff" stop-opacity="0.06"/>
        <stop offset="0.55" stop-color="#26faff" stop-opacity="0"/>
    </linearGradient>
    <path id="path18" fill="url(#linearGradient3)" stroke="none" d="M 15.167999 32.456535 C 18.0096 41.924267 22.131199 47.790932 25.314135 34.248531 C 25.006933 34.205864 31.782398 16.281601 32.068268 15.590401 C 34.679466 12.113068 38.886398 9.971203 43.255466 10.013866 C 51.882668 9.348267 60.834133 21.316265 58.487469 27.106133 C 56.883202 31.295998 50.854401 32.187737 48.081066 28.671997 C 47.116798 27.473068 46.7328 25.954136 45.896534 24.627201 C 44.283733 21.623466 42.150402 21.324799 40.776535 24.691196 C 39.628799 27.200001 39.010132 29.806934 38.395733 32.452263 L 35.784534 40.934402 L 32.132267 48.989868 C 29.5168 52.403198 25.361067 54.434135 21.073067 54.468269 C 3.938133 53.623466 2.449067 30.784 1.0752 23.9104 C 0.8832 22.015999 1.066667 21.124264 1.860267 19.635201 C 3.963733 15.927467 9.7792 15.722668 12.168533 19.242664 C 13.0176 20.416 13.179733 21.917866 13.341866 23.321602 C 13.700267 26.389332 14.318933 29.452801 15.167999 32.456535 L 15.167999 32.456535 Z"/>
    <linearGradient id="linearGradient4" x1="1.262933" y1="40.384" x2="29.422933" y2="30.3488" gradientUnits="userSpaceOnUse">
        <stop offset="1e-05" stop-color="#21deff" stop-opacity="1"/>
        <stop offset="0.04" stop-color="#21deff" stop-opacity="0.88"/>
        <stop offset="0.17" stop-color="#21deff" stop-opacity="0.51"/>
        <stop offset="0.27" stop-color="#21deff" stop-opacity="0.23"/>
        <stop offset="0.34" stop-color="#21deff" stop-opacity="0.06"/>
        <stop offset="0.38" stop-color="#21deff" stop-opacity="0"/>
    </linearGradient>
    <path id="path19" fill="url(#linearGradient4)" stroke="none" d="M 15.167999 32.456535 C 18.0096 41.924267 22.131199 47.790932 25.314135 34.248531 C 25.006933 34.205864 31.782398 16.281601 32.068268 15.590401 C 34.679466 12.113068 38.886398 9.971203 43.255466 10.013866 C 51.882668 9.348267 60.834133 21.316265 58.487469 27.106133 C 56.883202 31.295998 50.854401 32.187737 48.081066 28.671997 C 47.116798 27.473068 46.7328 25.954136 45.896534 24.627201 C 44.283733 21.623466 42.150402 21.324799 40.776535 24.691196 C 39.628799 27.200001 39.010132 29.806934 38.395733 32.452263 L 35.784534 40.934402 L 32.132267 48.989868 C 29.5168 52.403198 25.361067 54.434135 21.073067 54.468269 C 3.938133 53.623466 2.449067 30.784 1.0752 23.9104 C 0.8832 22.015999 1.066667 21.124264 1.860267 19.635201 C 3.963733 15.927467 9.7792 15.722668 12.168533 19.242664 C 13.0176 20.416 13.179733 21.917866 13.341866 23.321602 C 13.700267 26.389332 14.318933 29.452801 15.167999 32.456535 L 15.167999 32.456535 Z"/>
    <linearGradient id="linearGradient5" x1="28.113067" y1="25.821867" x2="43.8272" y2="51.451733" gradientUnits="userSpaceOnUse">
        <stop offset="0.62" stop-color="#21deff" stop-opacity="0"/>
        <stop offset="0.66" stop-color="#21deff" stop-opacity="0.06"/>
        <stop offset="0.73" stop-color="#21deff" stop-opacity="0.23"/>
        <stop offset="0.83" stop-color="#21deff" stop-opacity="0.51"/>
        <stop offset="0.96" stop-color="#21deff" stop-opacity="0.88"/>
        <stop offset="1" stop-color="#21deff" stop-opacity="1"/>
    </linearGradient>
    <path id="path20" fill="url(#linearGradient5)" stroke="none" d="M 15.167999 32.456535 C 18.0096 41.924267 22.131199 47.790932 25.314135 34.248531 C 25.006933 34.205864 31.782398 16.281601 32.068268 15.590401 C 34.679466 12.113068 38.886398 9.971203 43.255466 10.013866 C 51.882668 9.348267 60.834133 21.316265 58.487469 27.106133 C 56.883202 31.295998 50.854401 32.187737 48.081066 28.671997 C 47.116798 27.473068 46.7328 25.954136 45.896534 24.627201 C 44.283733 21.623466 42.150402 21.324799 40.776535 24.691196 C 39.628799 27.200001 39.010132 29.806934 38.395733 32.452263 L 35.784534 40.934402 L 32.132267 48.989868 C 29.5168 52.403198 25.361067 54.434135 21.073067 54.468269 C 3.938133 53.623466 2.449067 30.784 1.0752 23.9104 C 0.8832 22.015999 1.066667 21.124264 1.860267 19.635201 C 3.963733 15.927467 9.7792 15.722668 12.168533 19.242664 C 13.0176 20.416 13.179733 21.917866 13.341866 23.321602 C 13.700267 26.389332 14.318933 29.452801 15.167999 32.456535 L 15.167999 32.456535 Z"/>
    <linearGradient id="linearGradient6" x1="45.6064" y1="35.4048" x2="43.140267" y2="23.364267" gradientUnits="userSpaceOnUse">
        <stop offset="1e-05" stop-color="#44b044" stop-opacity="1"/>
        <stop offset="0.11" stop-color="#44b044" stop-opacity="0.8"/>
        <stop offset="0.27" stop-color="#44b044" stop-opacity="0.52"/>
        <stop offset="0.43" stop-color="#44b044" stop-opacity="0.29"/>
        <stop offset="0.58" stop-color="#44b044" stop-opacity="0.13"/>
        <stop offset="0.7" stop-color="#44b044" stop-opacity="0.03"/>
        <stop offset="0.8" stop-color="#44b044" stop-opacity="0"/>
    </linearGradient>
    <path id="path21" fill="url(#linearGradient6)" stroke="none" d="M 28.049067 26.2272 L 32.059734 15.560535 C 36.497066 9.412266 45.990402 8.085331 51.861336 12.949333 C 55.970131 16.046932 58.419201 22.182404 58.419201 22.182404 C 59.460266 24.422401 58.931198 27.349331 57.147736 29.064533 C 54.707199 31.603199 50.282665 31.377068 48.081066 28.642132 C 46.621864 27.025066 45.341866 20.970669 42.30827 22.476799 C 40.042667 24.721069 39.547733 28.223999 38.685867 31.155197 C 38.677334 31.722668 36.010666 40.106667 35.784534 40.908798 L 28.053333 26.231464 L 28.053333 26.231464 Z"/>
    <linearGradient id="linearGradient7" x1="11.1104" y1="22.9376" x2="63.104" y2="40.1536" gradientUnits="userSpaceOnUse">
        <stop offset="1e-05" stop-color="#3066fb" stop-opacity="1"/>
        <stop offset="0.38" stop-color="#2f64f7" stop-opacity="1"/>
        <stop offset="0.74" stop-color="#2857d9" stop-opacity="1"/>
        <stop offset="1" stop-color="#3c7eff" stop-opacity="1"/>
    </linearGradient>
    <path id="path22" fill="url(#linearGradient7)" stroke="none" d="M 57.049603 16.733868 C 56.529068 16.733868 56.004265 16.797863 55.517864 16.930134 C 56.989868 19.345066 58.7136 21.819733 58.786133 24.72533 C 58.939732 29.316265 53.597866 32.465065 49.710934 30.01173 C 48.328533 35.844269 43.882668 48.503468 40.251732 38.690132 C 38.485332 33.467735 37.926399 29.841068 36.501335 24.989868 C 32.516266 7.94453 16.354134 5.696003 8.7424 16.930134 C 11.712 17.621334 13.179733 20.608002 13.341866 23.355736 C 13.521067 26.436268 14.289067 29.422932 15.138133 32.392532 C 20.040533 17.322666 22.946133 21.1712 25.250134 30.566399 C 27.4688 40.055466 30.003201 49.898666 36.339199 52.778664 C 44.680534 57.262936 53.832531 52.616531 57.343998 44.654938 C 60.03627 39.347198 61.632 33.617065 62.562134 27.758934 C 62.835201 25.420799 63.586132 22.946133 62.792534 20.6464 C 61.900803 18.338131 59.507202 16.716801 57.049603 16.733868 Z"/>
    <radialGradient id="radialGradient16" cx="47.80811" cy="30.614227" r="33.652332" fx="47.80811" fy="30.614227" gradientUnits="userSpaceOnUse">
        <stop offset="1e-05" stop-color="#1a3d9c" stop-opacity="1"/>
        <stop offset="0.4" stop-color="#1a3d9c" stop-opacity="0.42"/>
        <stop offset="0.7" stop-color="#1a3d9c" stop-opacity="0"/>
    </radialGradient>
    <path id="path23" fill="url(#radialGradient16)" stroke="none" d="M 57.049603 16.733868 C 56.529068 16.733868 56.004265 16.797863 55.517864 16.930134 C 56.989868 19.345066 58.871464 21.819733 58.943996 24.72533 C 59.097599 29.316265 53.597866 32.465065 49.710934 30.01173 C 48.328533 35.844269 43.882668 48.503468 40.251732 38.690132 C 38.485332 33.467735 37.926399 29.841068 36.501335 24.989868 C 32.516266 7.94453 16.354134 5.696003 8.7424 16.930134 C 11.712 17.621334 13.290667 20.467201 13.341866 23.355736 C 13.700267 26.423466 14.289067 29.422932 15.138133 32.392532 C 20.040533 17.322666 22.946133 21.1712 25.250134 30.566399 C 27.4688 40.055466 30.003201 49.898666 36.339199 52.778664 C 44.680534 57.262936 53.832531 52.616531 57.343998 44.654938 C 60.03627 39.347198 61.632 33.617065 62.562134 27.758934 C 62.835201 25.420799 63.586132 22.946133 62.792534 20.6464 C 61.900803 18.338131 59.507202 16.716801 57.049603 16.733868 Z"/>
    <radialGradient id="radialGradient17" cx="-160.548126" cy="-24333.425652" r="4140.705122" fx="-160.548126" fy="-24333.425652" gradientUnits="userSpaceOnUse">
        <stop offset="1e-05" stop-color="#1a3d9c" stop-opacity="1"/>
        <stop offset="0.4" stop-color="#1a3d9c" stop-opacity="0.42"/>
        <stop offset="0.7" stop-color="#1a3d9c" stop-opacity="0"/>
    </radialGradient>
    <path id="path24" fill="url(#radialGradient17)" stroke="none" d="M 57.049603 16.733868 C 56.529068 16.733868 56.004265 16.797863 55.517864 16.930134 C 56.989868 19.345066 58.871464 21.819733 58.943996 24.72533 C 59.097599 29.316265 53.597866 32.465065 49.710934 30.01173 C 48.328533 35.844269 43.882668 48.503468 40.251732 38.690132 C 38.485332 33.467735 37.926399 29.841068 36.501335 24.989868 C 32.516266 7.94453 16.354134 5.696003 8.7424 16.930134 C 11.712 17.621334 13.290667 20.467201 13.341866 23.355736 C 13.700267 26.423466 14.289067 29.422932 15.138133 32.392532 C 20.040533 17.322666 22.946133 21.1712 25.250134 30.566399 C 27.4688 40.055466 30.003201 49.898666 36.339199 52.778664 C 44.680534 57.262936 53.832531 52.616531 57.343998 44.654938 C 60.03627 39.347198 61.632 33.617065 62.562134 27.758934 C 62.835201 25.420799 63.586132 22.946133 62.792534 20.6464 C 61.900803 18.338131 59.507202 16.716801 57.049603 16.733868 Z"/>
    <radialGradient id="radialGradient18" cx="1305.131637" cy="-24533.834759" r="4931.671249" fx="1305.131637" fy="-24533.834759" gradientUnits="userSpaceOnUse">
        <stop offset="1e-05" stop-color="#1a3d9c" stop-opacity="1"/>
        <stop offset="0.4" stop-color="#1a3d9c" stop-opacity="0.42"/>
        <stop offset="0.7" stop-color="#1a3d9c" stop-opacity="0"/>
    </radialGradient>
    <path id="path25" fill="url(#radialGradient18)" stroke="none" d="M 57.049603 16.733868 C 56.529068 16.733868 56.004265 16.797863 55.517864 16.930134 C 56.989868 19.345066 58.871464 21.819733 58.943996 24.72533 C 59.097599 29.316265 53.597866 32.465065 49.710934 30.01173 C 48.328533 35.844269 43.882668 48.503468 40.251732 38.690132 C 38.485332 33.467735 37.926399 29.841068 36.501335 24.989868 C 32.516266 7.94453 16.354134 5.696003 8.7424 16.930134 C 11.712 17.621334 13.290667 20.467201 13.341866 23.355736 C 13.700267 26.423466 14.289067 29.422932 15.138133 32.392532 C 20.040533 17.322666 22.946133 21.1712 25.250134 30.566399 C 27.4688 40.055466 30.003201 49.898666 36.339199 52.778664 C 44.680534 57.262936 53.832531 52.616531 57.343998 44.654938 C 60.03627 39.347198 61.632 33.617065 62.562134 27.758934 C 62.835201 25.420799 63.586132 22.946133 62.792534 20.6464 C 61.900803 18.338131 59.507202 16.716801 57.049603 16.733868 Z"/>
    <radialGradient id="radialGradient19" cx="44.829612" cy="31.017425" r="29.454065" fx="44.829612" fy="31.017425" gradientUnits="userSpaceOnUse">
        <stop offset="1e-05" stop-color="#1a3d9c" stop-opacity="1"/>
        <stop offset="0.16" stop-color="#1a3d9c" stop-opacity="0.69"/>
        <stop offset="0.33" stop-color="#1a3d9c" stop-opacity="0.4"/>
        <stop offset="0.49" stop-color="#1a3d9c" stop-opacity="0.18"/>
        <stop offset="0.61" stop-color="#1a3d9c" stop-opacity="0.05"/>
        <stop offset="0.7" stop-color="#1a3d9c" stop-opacity="0"/>
    </radialGradient>
    <path id="path26" fill="url(#radialGradient19)" stroke="none" d="M 57.049603 16.733868 C 56.529068 16.733868 56.004265 16.797863 55.517864 16.930134 C 56.989868 19.345066 58.871464 21.819733 58.943996 24.72533 C 59.097599 29.316265 53.597866 32.465065 49.710934 30.01173 C 48.328533 35.844269 43.882668 48.503468 40.251732 38.690132 C 38.485332 33.467735 37.926399 29.841068 36.501335 24.989868 C 32.516266 7.94453 16.354134 5.696003 8.7424 16.930134 C 11.712 17.621334 13.290667 20.467201 13.341866 23.355736 C 13.700267 26.423466 14.289067 29.422932 15.138133 32.392532 C 20.040533 17.322666 22.946133 21.1712 25.250134 30.566399 C 27.4688 40.055466 30.003201 49.898666 36.339199 52.778664 C 44.680534 57.262936 53.832531 52.616531 57.343998 44.654938 C 60.03627 39.347198 61.632 33.617065 62.562134 27.758934 C 62.835201 25.420799 63.586132 22.946133 62.792534 20.6464 C 61.900803 18.338131 59.507202 16.716801 57.049603 16.733868 Z"/>
    <radialGradient id="radialGradient20" cx="48.721033" cy="33.475219" r="28.045145" fx="48.721033" fy="33.475219" gradientUnits="userSpaceOnUse">
        <stop offset="1e-05" stop-color="#18388f" stop-opacity="1"/>
        <stop offset="0.37" stop-color="#193b96" stop-opacity="0.45"/>
        <stop offset="0.7" stop-color="#1a3d9c" stop-opacity="0"/>
    </radialGradient>
    <path id="path27" fill="url(#radialGradient20)" stroke="none" d="M 57.049603 16.733868 C 56.529068 16.733868 56.004265 16.797863 55.517864 16.930134 C 56.989868 19.345066 58.871464 21.819733 58.943996 24.72533 C 59.097599 29.316265 53.597866 32.465065 49.710934 30.01173 C 48.328533 35.844269 43.882668 48.503468 40.251732 38.690132 C 38.485332 33.467735 37.926399 29.841068 36.501335 24.989868 C 32.516266 7.94453 16.354134 5.696003 8.7424 16.930134 C 11.712 17.621334 13.290667 20.467201 13.341866 23.355736 C 13.700267 26.423466 14.289067 29.422932 15.138133 32.392532 C 20.040533 17.322666 22.946133 21.1712 25.250134 30.566399 C 27.4688 40.055466 30.003201 49.898666 36.339199 52.778664 C 44.680534 57.262936 53.832531 52.616531 57.343998 44.654938 C 60.03627 39.347198 61.632 33.617065 62.562134 27.758934 C 62.835201 25.420799 63.586132 22.946133 62.792534 20.6464 C 61.900803 18.338131 59.507202 16.716801 57.049603 16.733868 Z"/>
    <radialGradient id="radialGradient21" cx="46.871758" cy="39.472783" r="13.0397" fx="46.871758" fy="39.472783" gradientUnits="userSpaceOnUse">
        <stop offset="1e-05" stop-color="#18388f" stop-opacity="1"/>
        <stop offset="0.09" stop-color="#183992" stop-opacity="0.78"/>
        <stop offset="0.22" stop-color="#193b96" stop-opacity="0.5"/>
        <stop offset="0.35" stop-color="#193c98" stop-opacity="0.28"/>
        <stop offset="0.47" stop-color="#1a3c9a" stop-opacity="0.13"/>
        <stop offset="0.59" stop-color="#1a3d9c" stop-opacity="0.03"/>
        <stop offset="0.7" stop-color="#1a3d9c" stop-opacity="0"/>
    </radialGradient>
    <path id="path28" fill="url(#radialGradient21)" stroke="none" d="M 57.049603 16.733868 C 56.529068 16.733868 56.004265 16.797863 55.517864 16.930134 C 56.989868 19.345066 58.871464 21.819733 58.943996 24.72533 C 59.097599 29.316265 53.597866 32.465065 49.710934 30.01173 C 48.328533 35.844269 43.882668 48.503468 40.251732 38.690132 C 38.485332 33.467735 37.926399 29.841068 36.501335 24.989868 C 32.516266 7.94453 16.354134 5.696003 8.7424 16.930134 C 11.712 17.621334 13.290667 20.467201 13.341866 23.355736 C 13.700267 26.423466 14.289067 29.422932 15.138133 32.392532 C 20.040533 17.322666 22.946133 21.1712 25.250134 30.566399 C 27.4688 40.055466 30.003201 49.898666 36.339199 52.778664 C 44.680534 57.262936 53.832531 52.616531 57.343998 44.654938 C 60.03627 39.347198 61.632 33.617065 62.562134 27.758934 C 62.835201 25.420799 63.586132 22.946133 62.792534 20.6464 C 61.900803 18.338131 59.507202 16.716801 57.049603 16.733868 Z"/>
    <radialGradient id="radialGradient22" cx="47.062553" cy="41.352496" r="13.0397" fx="47.062553" fy="41.352496" gradientUnits="userSpaceOnUse">
        <stop offset="1e-05" stop-color="#1a3d9c" stop-opacity="0.8"/>
        <stop offset="0" stop-color="#1a3d9c" stop-opacity="0.78"/>
        <stop offset="0.24" stop-color="#1a3d9c" stop-opacity="0.45"/>
        <stop offset="0.44" stop-color="#1a3d9c" stop-opacity="0.2"/>
        <stop offset="0.6" stop-color="#1a3d9c" stop-opacity="0.05"/>
        <stop offset="0.7" stop-color="#1a3d9c" stop-opacity="0"/>
    </radialGradient>
    <path id="path29" fill="url(#radialGradient22)" stroke="none" d="M 57.049603 16.733868 C 56.529068 16.733868 56.004265 16.797863 55.517864 16.930134 C 56.989868 19.345066 58.871464 21.819733 58.943996 24.72533 C 59.097599 29.316265 53.597866 32.465065 49.710934 30.01173 C 48.328533 35.844269 43.882668 48.503468 40.251732 38.690132 C 38.485332 33.467735 37.926399 29.841068 36.501335 24.989868 C 32.516266 7.94453 16.354134 5.696003 8.7424 16.930134 C 11.712 17.621334 13.290667 20.467201 13.341866 23.355736 C 13.700267 26.423466 14.289067 29.422932 15.138133 32.392532 C 20.040533 17.322666 22.946133 21.1712 25.250134 30.566399 C 27.4688 40.055466 30.003201 49.898666 36.339199 52.778664 C 44.680534 57.262936 53.832531 52.616531 57.343998 44.654938 C 60.03627 39.347198 61.632 33.617065 62.562134 27.758934 C 62.835201 25.420799 63.586132 22.946133 62.792534 20.6464 C 61.900803 18.338131 59.507202 16.716801 57.049603 16.733868 Z"/>
    <radialGradient id="radialGradient23" cx="19.173088" cy="34.702662" r="30.68412" fx="19.173088" fy="34.702662" gradientUnits="userSpaceOnUse">
        <stop offset="1e-05" stop-color="#1a3d9c" stop-opacity="1"/>
        <stop offset="0.4" stop-color="#1a3d9c" stop-opacity="0.56"/>
        <stop offset="0.48" stop-color="#1a3d9c" stop-opacity="0.43"/>
        <stop offset="0.69" stop-color="#1a3d9c" stop-opacity="0.12"/>
        <stop offset="0.79" stop-color="#1a3d9c" stop-opacity="0"/>
    </radialGradient>
    <path id="path30" fill="url(#radialGradient23)" stroke="none" d="M 57.049603 16.733868 C 56.529068 16.733868 56.004265 16.797863 55.517864 16.930134 C 56.989868 19.345066 58.871464 21.819733 58.943996 24.72533 C 59.097599 29.316265 53.597866 32.465065 49.710934 30.01173 C 48.328533 35.844269 43.882668 48.503468 40.251732 38.690132 C 38.485332 33.467735 37.926399 29.841068 36.501335 24.989868 C 32.516266 7.94453 16.354134 5.696003 8.7424 16.930134 C 11.712 17.621334 13.290667 20.467201 13.341866 23.355736 C 13.700267 26.423466 14.289067 29.422932 15.138133 32.392532 C 20.040533 17.322666 22.946133 21.1712 25.250134 30.566399 C 27.4688 40.055466 30.003201 49.898666 36.339199 52.778664 C 44.680534 57.262936 53.832531 52.616531 57.343998 44.654938 C 60.03627 39.347198 61.632 33.617065 62.562134 27.758934 C 62.835201 25.420799 63.586132 22.946133 62.792534 20.6464 C 61.900803 18.338131 59.507202 16.716801 57.049603 16.733868 Z"/>
    <radialGradient id="radialGradient24" cx="15.924138" cy="28.366749" r="23.132322" fx="15.924138" fy="28.366749" gradientUnits="userSpaceOnUse">
        <stop offset="1e-05" stop-color="#1a3d9c" stop-opacity="1"/>
        <stop offset="0.06" stop-color="#1a3d9c" stop-opacity="0.88"/>
        <stop offset="0.21" stop-color="#1a3d9c" stop-opacity="0.61"/>
        <stop offset="0.36" stop-color="#1a3d9c" stop-opacity="0.39"/>
        <stop offset="0.51" stop-color="#1a3d9c" stop-opacity="0.22"/>
        <stop offset="0.67" stop-color="#1a3d9c" stop-opacity="0.1"/>
        <stop offset="0.83" stop-color="#1a3d9c" stop-opacity="0.02"/>
        <stop offset="1" stop-color="#1a3d9c" stop-opacity="0"/>
    </radialGradient>
    <path id="path31" fill="url(#radialGradient24)" stroke="none" d="M 57.049603 16.733868 C 56.529068 16.733868 56.004265 16.797863 55.517864 16.930134 C 56.989868 19.345066 58.871464 21.819733 58.943996 24.72533 C 59.097599 29.316265 53.597866 32.465065 49.710934 30.01173 C 48.328533 35.844269 43.882668 48.503468 40.251732 38.690132 C 38.485332 33.467735 37.926399 29.841068 36.501335 24.989868 C 32.516266 7.94453 16.354134 5.696003 8.7424 16.930134 C 11.712 17.621334 13.290667 20.467201 13.341866 23.355736 C 13.700267 26.423466 14.289067 29.422932 15.138133 32.392532 C 20.040533 17.322666 22.946133 21.1712 25.250134 30.566399 C 27.4688 40.055466 30.003201 49.898666 36.339199 52.778664 C 44.680534 57.262936 53.832531 52.616531 57.343998 44.654938 C 60.03627 39.347198 61.632 33.617065 62.562134 27.758934 C 62.835201 25.420799 63.586132 22.946133 62.792534 20.6464 C 61.900803 18.338131 59.507202 16.716801 57.049603 16.733868 Z"/>
    <radialGradient id="radialGradient25" cx="15.924138" cy="28.366749" r="23.132322" fx="15.924138" fy="28.366749" gradientUnits="userSpaceOnUse">
        <stop offset="1e-05" stop-color="#1b3e9e" stop-opacity="1"/>
        <stop offset="0.06" stop-color="#1b3e9e" stop-opacity="0.87"/>
        <stop offset="0.21" stop-color="#1b3e9d" stop-opacity="0.61"/>
        <stop offset="0.36" stop-color="#1a3d9d" stop-opacity="0.39"/>
        <stop offset="0.52" stop-color="#1a3d9c" stop-opacity="0.22"/>
        <stop offset="0.67" stop-color="#1a3d9c" stop-opacity="0.1"/>
        <stop offset="0.83" stop-color="#1a3d9c" stop-opacity="0.02"/>
        <stop offset="1" stop-color="#1a3d9c" stop-opacity="0"/>
    </radialGradient>
    <path id="path32" fill="url(#radialGradient25)" stroke="none" d="M 57.049603 16.733868 C 56.529068 16.733868 56.004265 16.797863 55.517864 16.930134 C 56.989868 19.345066 58.871464 21.819733 58.943996 24.72533 C 59.097599 29.316265 53.597866 32.465065 49.710934 30.01173 C 48.328533 35.844269 43.882668 48.503468 40.251732 38.690132 C 38.485332 33.467735 37.926399 29.841068 36.501335 24.989868 C 32.516266 7.94453 16.354134 5.696003 8.7424 16.930134 C 11.712 17.621334 13.290667 20.467201 13.341866 23.355736 C 13.700267 26.423466 14.289067 29.422932 15.138133 32.392532 C 20.040533 17.322666 22.946133 21.1712 25.250134 30.566399 C 27.4688 40.055466 30.003201 49.898666 36.339199 52.778664 C 44.680534 57.262936 53.832531 52.616531 57.343998 44.654938 C 60.03627 39.347198 61.632 33.617065 62.562134 27.758934 C 62.835201 25.420799 63.586132 22.946133 62.792534 20.6464 C 61.900803 18.338131 59.507202 16.716801 57.049603 16.733868 Z"/>
    <radialGradient id="radialGradient26" cx="17.56522" cy="26.220156" r="17.697502" fx="17.56522" fy="26.220156" gradientUnits="userSpaceOnUse">
        <stop offset="1e-05" stop-color="#183991" stop-opacity="1"/>
        <stop offset="0.03" stop-color="#183992" stop-opacity="0.95"/>
        <stop offset="0.18" stop-color="#193a95" stop-opacity="0.66"/>
        <stop offset="0.34" stop-color="#193b97" stop-opacity="0.42"/>
        <stop offset="0.5" stop-color="#1a3c99" stop-opacity="0.24"/>
        <stop offset="0.66" stop-color="#1a3d9b" stop-opacity="0.1"/>
        <stop offset="0.82" stop-color="#1a3d9c" stop-opacity="0.03"/>
        <stop offset="1" stop-color="#1a3d9c" stop-opacity="0"/>
    </radialGradient>
    <path id="path33" fill="url(#radialGradient26)" stroke="none" d="M 57.049603 16.733868 C 56.529068 16.733868 56.004265 16.797863 55.517864 16.930134 C 56.989868 19.345066 58.871464 21.819733 58.943996 24.72533 C 59.097599 29.316265 53.597866 32.465065 49.710934 30.01173 C 48.328533 35.844269 43.882668 48.503468 40.251732 38.690132 C 38.485332 33.467735 37.926399 29.841068 36.501335 24.989868 C 32.516266 7.94453 16.354134 5.696003 8.7424 16.930134 C 11.712 17.621334 13.290667 20.467201 13.341866 23.355736 C 13.700267 26.423466 14.289067 29.422932 15.138133 32.392532 C 20.040533 17.322666 22.946133 21.1712 25.250134 30.566399 C 27.4688 40.055466 30.003201 49.898666 36.339199 52.778664 C 44.680534 57.262936 53.832531 52.616531 57.343998 44.654938 C 60.03627 39.347198 61.632 33.617065 62.562134 27.758934 C 62.835201 25.420799 63.586132 22.946133 62.792534 20.6464 C 61.900803 18.338131 59.507202 16.716801 57.049603 16.733868 Z"/>
    <radialGradient id="radialGradient27" cx="22.116328" cy="30.485153" r="14.110741" fx="22.116328" fy="30.485153" gradientUnits="userSpaceOnUse">
        <stop offset="0.04" stop-color="#2453d6" stop-opacity="0.6"/>
        <stop offset="0.2" stop-color="#2453d6" stop-opacity="0.49"/>
        <stop offset="0.52" stop-color="#2453d6" stop-opacity="0.2"/>
        <stop offset="0.73" stop-color="#2453d6" stop-opacity="0"/>
    </radialGradient>
    <path id="path34" fill="url(#radialGradient27)" stroke="none" d="M 57.049603 16.733868 C 56.529068 16.733868 56.004265 16.797863 55.517864 16.930134 C 56.989868 19.345066 58.871464 21.819733 58.943996 24.72533 C 59.097599 29.316265 53.597866 32.465065 49.710934 30.01173 C 48.328533 35.844269 43.882668 48.503468 40.251732 38.690132 C 38.485332 33.467735 37.926399 29.841068 36.501335 24.989868 C 32.516266 7.94453 16.354134 5.696003 8.7424 16.930134 C 11.712 17.621334 13.290667 20.467201 13.341866 23.355736 C 13.700267 26.423466 14.289067 29.422932 15.138133 32.392532 C 20.040533 17.322666 22.946133 21.1712 25.250134 30.566399 C 27.4688 40.055466 30.003201 49.898666 36.339199 52.778664 C 44.680534 57.262936 53.832531 52.616531 57.343998 44.654938 C 60.03627 39.347198 61.632 33.617065 62.562134 27.758934 C 62.835201 25.420799 63.586132 22.946133 62.792534 20.6464 C 61.900803 18.338131 59.507202 16.716801 57.049603 16.733868 Z"/>
    <linearGradient id="linearGradient8" x1="44.910933" y1="1.681067" x2="31.7696" y2="34.158933" gradientUnits="userSpaceOnUse">
        <stop offset="1e-05" stop-color="#3774ff" stop-opacity="1"/>
        <stop offset="0.05" stop-color="#3774ff" stop-opacity="0.91"/>
        <stop offset="0.16" stop-color="#3774ff" stop-opacity="0.66"/>
        <stop offset="0.32" stop-color="#3774ff" stop-opacity="0.28"/>
        <stop offset="0.43" stop-color="#3774ff" stop-opacity="0"/>
    </linearGradient>
    <path id="path35" fill="url(#linearGradient8)" stroke="none" d="M 57.049603 16.733868 C 56.529068 16.733868 56.004265 16.797863 55.517864 16.930134 C 56.989868 19.345066 58.7136 21.819733 58.786133 24.72533 C 58.939732 29.316265 53.597866 32.465065 49.710934 30.01173 C 48.328533 35.844269 43.882668 48.503468 40.251732 38.690132 C 38.485332 33.467735 37.926399 29.841068 36.501335 24.989868 C 32.516266 7.94453 16.354134 5.696003 8.7424 16.930134 C 11.712 17.621334 13.290667 20.467201 13.341866 23.355736 C 13.700267 26.423466 14.289067 29.422932 15.138133 32.392532 C 20.040533 17.322666 22.946133 21.1712 25.250134 30.566399 C 27.4688 40.055466 30.003201 49.898666 36.339199 52.778664 C 44.680534 57.262936 53.832531 52.616531 57.343998 44.654938 C 60.03627 39.347198 61.632 33.617065 62.562134 27.758934 C 62.835201 25.420799 63.586132 22.946133 62.792534 20.6464 C 61.900803 18.338131 59.507202 16.716801 57.049603 16.733868 Z"/>
</svg>
